<svg width="60" height="60" viewBox="0 0 60 60" fill="none" xmlns="http://www.w3.org/2000/svg">
<path d="M15 47.5C19.1421 47.5 22.5 44.1421 22.5 40C22.5 35.8579 19.1421 32.5 15 32.5C10.8579 32.5 7.5 35.8579 7.5 40C7.5 44.1421 10.8579 47.5 15 47.5Z" stroke="#1A1C21" stroke-width="4" stroke-linecap="round" stroke-linejoin="round"/>
<path d="M40 52.5C42.7614 52.5 45 50.2614 45 47.5C45 44.7386 42.7614 42.5 40 42.5C37.2386 42.5 35 44.7386 35 47.5C35 50.2614 37.2386 52.5 40 52.5Z" stroke="#1A1C21" stroke-width="4" stroke-linecap="round" stroke-linejoin="round"/>
<path d="M36.25 30C42.4632 30 47.5 24.9632 47.5 18.75C47.5 12.5368 42.4632 7.5 36.25 7.5C30.0368 7.5 25 12.5368 25 18.75C25 24.9632 30.0368 30 36.25 30Z" stroke="#1A1C21" stroke-width="4" stroke-linecap="round" stroke-linejoin="round"/>
</svg>
