<svg width="60" height="60" viewBox="0 0 60 60" fill="none" xmlns="http://www.w3.org/2000/svg">
<path d="M30 0C13.4551 0 0 13.4551 0 30C0 46.5449 13.4551 60 30 60C46.5449 60 60 46.5449 60 30C60 13.4551 46.5449 0 30 0ZM30 4C44.3831 4 56.0156 15.6169 56.0156 30C56.0156 44.3831 44.3831 56.0156 30 56.0156C15.6169 56.0156 4 44.3831 4 30C4 15.6169 15.6169 4 30 4ZM29.9727 14.0117C29.4443 14.021 28.941 14.2391 28.5729 14.6182C28.2047 14.9973 28.0016 15.5067 28.0078 16.0352V17.7188C24.7785 18.3246 22.0156 20.404 22.0156 24.0078C22.0156 26.5078 23.1426 28.5298 24.6563 29.707C26.1699 30.8843 27.8789 31.4062 29.3789 31.9062C30.8789 32.4062 32.1738 32.8843 32.9102 33.457C33.6466 34.0298 34 34.5117 34 36.0117C34 39.3451 26.0156 39.3451 26.0156 36.0117C26.0215 35.7453 25.9742 35.4805 25.8763 35.2326C25.7785 34.9848 25.6321 34.759 25.4458 34.5686C25.2595 34.3781 25.037 34.2267 24.7914 34.1234C24.5458 34.0201 24.2821 33.9669 24.0156 33.9669C23.7492 33.9669 23.4854 34.0201 23.2398 34.1234C22.9942 34.2267 22.7718 34.3781 22.5855 34.5686C22.3992 34.759 22.2528 34.9848 22.1549 35.2326C22.0571 35.4805 22.0097 35.7453 22.0156 36.0117C22.0156 39.6127 24.781 41.6961 28.0078 42.3047V43.9805C28.0019 44.2468 28.0493 44.5117 28.1471 44.7595C28.245 45.0074 28.3913 45.2331 28.5777 45.4236C28.764 45.6141 28.9864 45.7654 29.232 45.8688C29.4776 45.9721 29.7414 46.0253 30.0078 46.0253C30.2743 46.0253 30.538 45.9721 30.7836 45.8688C31.0292 45.7654 31.2517 45.6141 31.438 45.4236C31.6243 45.2331 31.7706 45.0074 31.8685 44.7595C31.9664 44.5117 32.0137 44.2468 32.0078 43.9805V42.3047C35.2352 41.6964 38.0039 39.6132 38.0039 36.0117C38.0039 33.5117 36.873 31.4897 35.3594 30.3125C33.8458 29.1353 32.1367 28.6094 30.6367 28.1094C29.1367 27.6094 27.8419 27.1353 27.1055 26.5625C26.3691 25.9897 26.0156 25.5078 26.0156 24.0078C26.0156 20.6745 34 20.6745 34 24.0078C34 24.5388 34.2109 25.048 34.5864 25.4234C34.9618 25.7988 35.471 26.0098 36.002 26.0098C36.5329 26.0098 37.0421 25.7988 37.4175 25.4234C37.793 25.048 38.0039 24.5388 38.0039 24.0078C38.0039 20.4094 35.2343 18.332 32.0078 17.7227V16.0352C32.011 15.7676 31.9604 15.5021 31.8591 15.2544C31.7578 15.0067 31.6078 14.7819 31.418 14.5932C31.2282 14.4045 31.0025 14.2558 30.7543 14.1559C30.506 14.0561 30.2402 14.007 29.9727 14.0117H29.9727Z" fill="#1A1C21"/>
</svg>
