<svg width="60" height="60" viewBox="0 0 60 60" fill="none" xmlns="http://www.w3.org/2000/svg">
<path d="M55.7152 22.0681H54.7121C53.2632 18.2787 50.7988 14.8483 47.4923 12.0743C47.4923 12.0619 47.4923 12.0619 47.4923 12.0495C46.9969 10.3282 47.3684 8.48298 48.5697 6.56348C49.1889 5.57277 49.226 4.37153 48.6563 3.35605C48.0991 2.35295 47.0464 1.72137 45.9071 1.72137C45.7709 1.72137 45.6347 1.73376 45.5108 1.74614C40.9164 2.3158 38.1672 4.40868 36.582 6.35295C33.8328 5.59754 30.9845 5.21363 28.0867 5.21363C20.6192 5.21363 13.5975 7.76472 8.29721 12.3963C2.94737 17.0774 0 23.3189 0 29.9691C0 31.6904 0.198142 33.4118 0.606811 35.096C0.606811 35.1208 0.619195 35.1579 0.631579 35.1827C0.631579 35.1827 0.643963 35.2074 0.656347 35.257C1.0774 36.9536 1.69659 38.613 2.50155 40.1858C3.82663 43.0712 5.42415 45.4737 7.21981 47.3313C9.7709 49.9567 10.2043 53.2756 10.2663 54.613V55.2694C10.2663 55.3065 10.2663 55.3437 10.2663 55.3932C10.2663 55.4551 10.2663 55.517 10.2786 55.5666C10.4272 57.0898 11.7276 58.2663 13.2632 58.2663H22.4892C24.1362 58.2663 25.4861 56.9164 25.4861 55.2694V54.6502C26.9226 54.7616 28.3715 54.7864 29.8204 54.7121V55.2817C29.8204 56.9288 31.1703 58.2787 32.8173 58.2787H42.0433C43.6904 58.2787 45.0402 56.9288 45.0402 55.2817V53.0279C45.0526 52.4954 45.2632 49.9691 47.6532 47.7895C47.7647 47.6904 47.8885 47.5913 48 47.4923C48.0124 47.4799 48.0124 47.4799 48.0248 47.4675C48.0495 47.4427 48.0867 47.418 48.1115 47.3932C51.2074 44.6192 53.5232 41.2384 54.8607 37.548H55.7276C58.0805 37.548 60 35.6285 60 33.2756V26.3901C59.9876 23.9876 58.0681 22.0681 55.7152 22.0681ZM57.0155 33.226C57.0155 33.9443 56.4334 34.5263 55.7152 34.5263H53.7833C53.1269 34.5263 52.5573 34.9474 52.3591 35.579C51.257 39.1703 49.0774 42.4892 46.0681 45.1765C46.0557 45.1889 46.0557 45.1889 46.0433 45.2013L46.031 45.2136C45.9195 45.3127 45.808 45.4118 45.6966 45.5108C45.6842 45.5232 45.6718 45.5356 45.6594 45.5356C42.4149 48.483 42.0805 51.9505 42.0557 52.9412C42.0557 52.9536 42.0557 52.966 42.0557 52.9783V55.257C42.0557 55.2694 42.0433 55.2817 42.031 55.2817H32.805C32.7926 55.2817 32.7802 55.2694 32.7802 55.257V53.0898C32.7802 52.6687 32.6068 52.2725 32.2848 51.9876C32.0124 51.74 31.6532 51.6037 31.2941 51.6037C31.2446 51.6037 31.195 51.6037 31.1331 51.6161C30.1176 51.7276 29.0898 51.7771 28.0743 51.7771C26.774 51.7771 25.4613 51.6904 24.1858 51.517C23.7647 51.4551 23.3313 51.5913 23.0093 51.8762C22.6873 52.161 22.5015 52.5697 22.5015 52.9907V55.257C22.5015 55.2694 22.4892 55.2817 22.4768 55.2817H13.2508C13.2384 55.2817 13.226 55.2694 13.226 55.257V54.5635C13.226 54.5387 13.226 54.5139 13.226 54.5016C13.1517 52.8421 12.6316 48.6316 9.33746 45.2508C7.76471 43.6285 6.35294 41.4985 5.1517 38.9102C5.13932 38.8855 5.13932 38.8731 5.12694 38.8607C4.42105 37.4737 3.86378 36.0248 3.50464 34.5387C3.50464 34.5263 3.49226 34.5139 3.49226 34.5016C3.49226 34.4892 3.49226 34.4892 3.49226 34.4768C3.13313 33.0031 2.95975 31.4923 2.95975 29.9938C2.95975 17.9814 14.2291 8.19815 28.0743 8.19815C31.0341 8.19815 33.9195 8.64398 36.6687 9.51085C37.3003 9.70899 37.9814 9.4737 38.3529 8.9288C39.4551 7.29413 41.6471 5.25079 45.8576 4.71828C45.9567 4.70589 46.0186 4.76781 46.0433 4.81735C46.0929 4.90404 46.0557 4.97834 46.031 5.00311C44.3839 7.6285 43.9009 10.353 44.6192 12.8793C44.6192 12.8917 44.6316 12.9164 44.6316 12.9288C44.644 13.3622 44.8421 13.7709 45.1889 14.0434C48.5573 16.7678 50.9969 20.2229 52.2477 24.0372C52.4458 24.644 53.0155 25.065 53.6594 25.065H53.6718H55.7028C56.4211 25.065 57.0031 25.6471 57.0031 26.3653V33.226H57.0155Z" fill="#1A1C21"/>
<path d="M29.6971 28.483H26.3782C25.1894 28.483 24.2234 27.517 24.2234 26.3282C24.2234 25.1393 25.1894 24.1734 26.3782 24.1734H32.2482C33.0655 24.1734 33.7343 23.5047 33.7343 22.6873C33.7343 21.87 33.0655 21.2012 32.2482 21.2012H29.5361V19.2074C29.5361 18.3901 28.8674 17.7214 28.0501 17.7214C27.2327 17.7214 26.564 18.3901 26.564 19.2074V21.2012H26.3906C23.5671 21.2012 21.2637 23.5047 21.2637 26.3282C21.2637 29.1517 23.5671 31.4551 26.3906 31.4551H29.7095C30.8983 31.4551 31.8643 32.4211 31.8643 33.6099C31.8643 34.7988 30.8983 35.7647 29.7095 35.7647H23.7405C22.9231 35.7647 22.2544 36.4334 22.2544 37.2508C22.2544 38.0681 22.9231 38.7369 23.7405 38.7369H26.564V40.7678C26.564 41.5852 27.2327 42.2539 28.0501 42.2539C28.8674 42.2539 29.5361 41.5852 29.5361 40.7678V38.7369H29.7466C29.759 38.7369 29.7714 38.7369 29.7838 38.7369C32.5826 38.6997 34.8488 36.4087 34.8488 33.6099C34.824 30.7864 32.5206 28.483 29.6971 28.483Z" fill="#1A1C21"/>
</svg>
