<svg width="60" height="60" viewBox="0 0 60 60" fill="none" xmlns="http://www.w3.org/2000/svg">
<path d="M22.5 27.5C28.0228 27.5 32.5 23.0228 32.5 17.5C32.5 11.9772 28.0228 7.5 22.5 7.5C16.9772 7.5 12.5 11.9772 12.5 17.5C12.5 23.0228 16.9772 27.5 22.5 27.5Z" stroke="white" stroke-width="3" stroke-linecap="round" stroke-linejoin="round"/>
<path d="M7.5 52.5V47.5C7.5 44.8478 8.55357 42.3043 10.4289 40.4289C12.3043 38.5536 14.8478 37.5 17.5 37.5H27.5C30.1522 37.5 32.6957 38.5536 34.5711 40.4289C36.4464 42.3043 37.5 44.8478 37.5 47.5V52.5" stroke="white" stroke-width="3" stroke-linecap="round" stroke-linejoin="round"/>
<path d="M40 7.82715C42.151 8.3779 44.0576 9.6289 45.4191 11.3829C46.7806 13.1369 47.5196 15.2942 47.5196 17.5146C47.5196 19.7351 46.7806 21.8923 45.4191 23.6464C44.0576 25.4004 42.151 26.6514 40 27.2021" stroke="white" stroke-width="3" stroke-linecap="round" stroke-linejoin="round"/>
<path d="M52.5 52.501V47.501C52.4873 45.2939 51.7448 43.153 50.3882 41.412C49.0316 39.671 47.1371 38.4277 45 37.876" stroke="white" stroke-width="3" stroke-linecap="round" stroke-linejoin="round"/>
</svg>
