<svg width="60" height="60" viewBox="0 0 60 60" fill="none" xmlns="http://www.w3.org/2000/svg">
<g clip-path="url(#clip0_958_9066)">
<path d="M6.09376 38.0304C6.4227 39.0123 5.89337 40.0749 4.91145 40.4039C4.71388 40.47 4.51302 40.5015 4.31567 40.5015C3.53169 40.5015 2.80079 40.0059 2.53806 39.2216C0.85208 34.1892 0.578798 28.7883 1.74763 23.6028C2.94927 18.2713 5.63638 13.4013 9.51833 9.51947C14.9888 4.04892 22.2621 1.03615 29.9987 1.03615C36.6741 1.03615 43.0035 3.28087 48.1287 7.41021L47.3837 2.13724C47.2389 1.11185 47.9527 0.163216 48.9779 0.0183727C50.0037 -0.126237 50.952 0.587318 51.0968 1.61259L52.4852 11.4398C52.5549 11.9322 52.4259 12.432 52.1269 12.8294C51.8279 13.2268 51.3833 13.4891 50.8909 13.5587L41.0637 14.947C40.9747 14.9595 40.8864 14.9656 40.7991 14.9656C39.8797 14.9656 39.0771 14.2891 38.9448 13.3527C38.8 12.3273 39.5138 11.3786 40.539 11.2338L45.9492 10.4695C41.4585 6.78806 35.8825 4.78603 29.9986 4.78603C23.2637 4.78603 16.9321 7.40869 12.1697 12.1711C5.35981 18.9812 3.03153 28.8899 6.09376 38.0304ZM57.4595 20.7783C57.1304 19.7965 56.0679 19.2672 55.086 19.5962C54.1041 19.9252 53.5749 20.9878 53.9039 21.9697C56.9665 31.1097 54.6382 41.0183 47.8277 47.8289C38.6012 57.0554 23.9447 57.6222 14.0504 49.5301L19.4585 48.766C20.4839 48.6212 21.1976 47.6726 21.0527 46.6472C20.9079 45.6218 19.9587 44.9082 18.9339 45.0529L9.10677 46.4413C8.08138 46.5861 7.3677 47.5347 7.51255 48.5601L8.90087 58.3874C9.03317 59.3238 9.83579 60.0003 10.7551 60.0003C10.8424 60.0003 10.9309 59.9942 11.0197 59.9817C12.0451 59.8368 12.7588 58.8881 12.614 57.8628L11.869 52.5899C16.9941 56.7192 23.3235 58.9639 29.9988 58.9639C37.7353 58.9639 45.0088 55.9511 50.4793 50.4806C54.3613 46.5986 57.0484 41.7287 58.2503 36.3971C59.4191 31.2113 59.1456 25.8105 57.4595 20.7783ZM38.8902 36.3807C38.8902 31.892 34.9015 28.2402 29.9987 28.2402C27.1637 28.2402 24.8572 26.2706 24.8572 23.8496C24.8572 21.4286 27.1638 19.4591 29.9986 19.459C31.4529 19.459 34.0648 20.6086 34.6565 21.5089C35.2252 22.3742 36.3877 22.6149 37.2531 22.0461C38.1185 21.4774 38.359 20.3148 37.7903 19.4495C36.6308 17.6852 34.0112 16.4393 31.8441 15.945L31.7899 13.6767C31.7652 12.6415 30.906 11.8252 29.8706 11.847C28.8354 11.8718 28.0163 12.7311 28.041 13.7663L28.092 15.8976C24.1027 16.6991 21.1074 19.9603 21.1072 23.8497C21.1072 28.3385 25.0959 31.9903 29.9987 31.9903C32.8337 31.9903 35.1402 33.9599 35.1402 36.3808C35.1402 38.8018 32.8337 40.7714 29.9987 40.7714C28.0431 40.7714 27.0458 40.1281 25.4149 38.5896C24.6618 37.879 23.475 37.9134 22.7644 38.6668C22.0538 39.4201 22.0883 40.6067 22.8416 41.3174C24.2872 42.6812 25.8012 43.9323 28.1602 44.3629L28.2075 46.3238C28.2321 47.3437 29.0666 48.1536 30.0811 48.1536C30.0965 48.1536 30.1118 48.1535 30.1273 48.153C31.1625 48.1281 31.9814 47.2686 31.9565 46.2334L31.9105 44.332C35.8974 43.5288 38.8902 40.2686 38.8902 36.3807Z" fill="#1A1C21"/>
</g>
<defs>
<clipPath id="clip0_958_9066">
<rect width="60" height="60" fill="white"/>
</clipPath>
</defs>
</svg>
