<svg width="35" height="34" viewBox="0 0 35 34" fill="none" xmlns="http://www.w3.org/2000/svg">
<mask id="mask0_178_34036" style="mask-type:alpha" maskUnits="userSpaceOnUse" x="0" y="0" width="35" height="34">
<circle cx="17.9727" cy="17" r="17" fill="#D9D9D9"/>
</mask>
<g mask="url(#mask0_178_34036)">
<path d="M0.972656 0H34.9727V34H0.972656V0Z" fill="white"/>
<path d="M14.5859 0H21.3589V34H14.5859V0Z" fill="#FF0000"/>
<path d="M0.972656 13.613H34.9727V20.386H0.972656V13.613Z" fill="#FF0000"/>
<path fill-rule="evenodd" clip-rule="evenodd" d="M8.55097 26.423C8.59884 25.6783 8.69437 24.9375 8.83697 24.205C8.83697 24.205 8.13697 24.271 7.78097 24.271C7.42497 24.271 6.72497 24.205 6.72497 24.205C6.86817 24.9374 6.9637 25.6783 7.01097 26.423C6.26629 26.3751 5.52544 26.2796 4.79297 26.137C4.83401 26.4875 4.85605 26.8401 4.85897 27.193C4.85605 27.5459 4.83401 27.8984 4.79297 28.249C5.52534 28.1058 6.26623 28.0103 7.01097 27.963C6.9631 28.7077 6.86757 29.4485 6.72497 30.181C7.07552 30.1399 7.42804 30.1179 7.78097 30.115C8.13391 30.1176 8.48645 30.1396 8.83697 30.181C8.69377 29.4486 8.59824 28.7077 8.55097 27.963C9.29565 28.0109 10.0365 28.1064 10.769 28.249C10.769 28.249 10.703 27.549 10.703 27.193C10.703 26.837 10.769 26.137 10.769 26.137C10.0366 26.2802 9.29571 26.3757 8.55097 26.423ZM28.938 6.03599C28.9858 5.29131 29.0814 4.55046 29.224 3.81799C29.224 3.81799 28.524 3.88399 28.168 3.88399C27.812 3.88399 27.112 3.81799 27.112 3.81799C27.2546 4.55046 27.3501 5.29131 27.398 6.03599C26.6533 5.98812 25.9124 5.89259 25.18 5.74999C25.221 6.10054 25.243 6.45306 25.246 6.80599C25.2434 7.15894 25.2213 7.51147 25.18 7.86199C25.9123 7.7188 26.6532 7.62326 27.398 7.57599C27.3501 8.32068 27.2546 9.06153 27.112 9.79399C27.8132 9.70542 28.5228 9.70542 29.224 9.79399C29.0808 9.06162 28.9852 8.32073 28.938 7.57599C29.6827 7.62387 30.4235 7.7194 31.156 7.86199C31.156 7.86199 31.09 7.16199 31.09 6.80599C31.09 6.44999 31.156 5.74999 31.156 5.74999C30.4235 5.89259 29.6827 5.98812 28.938 6.03599ZM8.55097 6.03599C8.59884 5.29131 8.69437 4.55046 8.83697 3.81799C8.83697 3.81799 8.13697 3.88399 7.78097 3.88399C7.42497 3.88399 6.72497 3.81799 6.72497 3.81799C6.86757 4.55046 6.9631 5.29131 7.01097 6.03599C6.26629 5.98812 5.52544 5.89259 4.79297 5.74999C4.83401 6.10054 4.85605 6.45306 4.85897 6.80599C4.85637 7.15894 4.83433 7.51147 4.79297 7.86199C5.52534 7.7188 6.26623 7.62326 7.01097 7.57599C6.9631 8.32068 6.86757 9.06153 6.72497 9.79399C7.07552 9.75295 7.42804 9.73092 7.78097 9.72799C8.13391 9.7306 8.48645 9.75263 8.83697 9.79399C8.69377 9.06162 8.59824 8.32073 8.55097 7.57599C9.29565 7.62387 10.0365 7.7194 10.769 7.86199C10.769 7.86199 10.703 7.16199 10.703 6.80599C10.703 6.44999 10.769 5.74999 10.769 5.74999C10.0366 5.89319 9.29571 5.98872 8.55097 6.03599ZM28.938 26.423C28.9858 25.6783 29.0814 24.9375 29.224 24.205C29.224 24.205 28.524 24.271 28.168 24.271C27.812 24.271 27.112 24.205 27.112 24.205C27.2552 24.9374 27.3507 25.6783 27.398 26.423C26.6533 26.3751 25.9124 26.2796 25.18 26.137C25.2685 26.8382 25.2685 27.5478 25.18 28.249C25.9123 28.1058 26.6532 28.0103 27.398 27.963C27.3501 28.7077 27.2546 29.4485 27.112 30.181C27.8132 30.0924 28.5228 30.0924 29.224 30.181C29.0808 29.4486 28.9852 28.7077 28.938 27.963C29.6827 28.0109 30.4235 28.1064 31.156 28.249C31.156 28.249 31.09 27.549 31.09 27.193C31.09 26.837 31.156 26.137 31.156 26.137C30.4235 26.2796 29.6827 26.3751 28.938 26.423Z" fill="#FF0000"/>
</g>
</svg>
