<svg width="32" height="20" viewBox="0 0 32 20" fill="none" xmlns="http://www.w3.org/2000/svg">
<path d="M20.3266 2.138H11.6738V17.862H20.3266V2.138Z" fill="#FF5F00"/>
<path d="M12.223 10C12.2216 8.48567 12.561 6.99086 13.2153 5.62876C13.8697 4.26665 14.822 3.07294 16 2.138C14.5412 0.978459 12.7892 0.257355 10.9442 0.0571128C9.0993 -0.14313 7.23588 0.185562 5.56695 1.00563C3.89802 1.8257 2.49092 3.10406 1.50648 4.69459C0.522046 6.28511 0 8.12363 0 10C0 11.8764 0.522046 13.7149 1.50648 15.3054C2.49092 16.8959 3.89802 18.1743 5.56695 18.9944C7.23588 19.8144 9.0993 20.1431 10.9442 19.9429C12.7892 19.7426 14.5412 19.0215 16 17.862C14.822 16.927 13.8697 15.7333 13.2154 14.3712C12.561 13.0091 12.2216 11.5143 12.223 10Z" fill="#EB001B"/>
<path d="M31.9995 10C31.9996 11.8763 31.4776 13.7149 30.4932 15.3054C29.5088 16.8959 28.1018 18.1743 26.4329 18.9943C24.764 19.8144 22.9006 20.1431 21.0557 19.9429C19.2108 19.7426 17.4588 19.0215 16 17.862C17.177 16.9261 18.1285 15.7322 18.7827 14.3703C19.437 13.0084 19.777 11.5141 19.777 10C19.777 8.4859 19.437 6.99157 18.7827 5.62968C18.1285 4.26779 17.177 3.07389 16 2.138C17.4588 0.978454 19.2108 0.25735 21.0557 0.0571102C22.9006 -0.14313 24.764 0.185576 26.4329 1.00566C28.1018 1.82574 29.5088 3.10409 30.4932 4.69462C31.4776 6.28514 31.9996 8.12365 31.9995 10Z" fill="#F79E1B"/>
<path d="M31.056 16.1966V15.8747H31.1843V15.8091H30.8574V15.8747H30.9858V16.1966H31.056ZM31.6906 16.1966V15.8084H31.5904L31.4752 16.0754L31.3599 15.8084H31.2596V16.1966H31.3304V15.9038L31.4385 16.1562H31.5119L31.6199 15.9032V16.1966H31.6906Z" fill="#F79E1B"/>
</svg>
