<svg width="81" height="20" viewBox="0 0 81 20" fill="none" xmlns="http://www.w3.org/2000/svg">
<path d="M61.8415 5.21739H57.524C57.2701 5.21739 57.0161 5.46584 56.8891 5.71429L55.1113 16.6459C55.1113 16.8944 55.2383 17.0186 55.4923 17.0186H57.778C58.032 17.0186 58.1589 16.8944 58.1589 16.6459L58.6669 13.5404C58.6669 13.2919 58.9209 13.0435 59.3018 13.0435H60.6986C63.6193 13.0435 65.2701 11.677 65.651 8.9441C65.905 7.82608 65.651 6.8323 65.1431 6.21118C64.3812 5.59006 63.2383 5.21739 61.8415 5.21739ZM62.3494 9.31677C62.0955 10.8074 60.9526 10.8074 59.8097 10.8074H59.0478L59.5558 7.95031C59.5558 7.82609 59.6828 7.70186 59.9367 7.70186H60.1907C60.9526 7.70186 61.7145 7.70186 62.0955 8.19875C62.3494 8.32298 62.3494 8.69565 62.3494 9.31677Z" fill="#139AD6"/>
<path d="M30.7302 5.21739H26.4127C26.1587 5.21739 25.9048 5.46584 25.7778 5.71429L24 16.6459C24 16.8944 24.127 17.0186 24.381 17.0186H26.4127C26.6667 17.0186 26.9206 16.7702 27.0476 16.5217L27.5556 13.5404C27.5556 13.2919 27.8095 13.0435 28.1905 13.0435H29.5873C32.5079 13.0435 34.1587 11.677 34.5397 8.9441C34.7937 7.82608 34.5397 6.8323 34.0317 6.21118C33.2698 5.59006 32.254 5.21739 30.7302 5.21739ZM31.2381 9.31677C30.9841 10.8074 29.8413 10.8074 28.6984 10.8074H28.0635L28.5714 7.95031C28.5714 7.82609 28.6984 7.70186 28.9524 7.70186H29.2063C29.9683 7.70186 30.7302 7.70186 31.1111 8.19875C31.2381 8.32298 31.3651 8.69565 31.2381 9.31677Z" fill="#263B80"/>
<path d="M43.8105 9.19254H41.7787C41.6517 9.19254 41.3978 9.31676 41.3978 9.44099L41.2708 10.0621L41.1438 9.81366C40.6359 9.19254 39.747 8.94409 38.7311 8.94409C36.4454 8.94409 34.4136 10.6832 34.0327 13.0435C33.7787 14.2857 34.1597 15.4037 34.7946 16.1491C35.4295 16.8944 36.3184 17.1428 37.4612 17.1428C39.366 17.1428 40.3819 16.0248 40.3819 16.0248L40.2549 16.6459C40.2549 16.8944 40.3819 17.0186 40.6359 17.0186H42.5406C42.7946 17.0186 43.0486 16.7702 43.1755 16.5217L44.3184 9.56521C44.1914 9.44099 43.9374 9.19254 43.8105 9.19254ZM40.8898 13.1677C40.6359 14.2857 39.747 15.1553 38.4771 15.1553C37.8422 15.1553 37.3343 14.9068 37.0803 14.6584C36.8263 14.2857 36.6993 13.7888 36.6993 13.1677C36.8263 12.0497 37.8422 11.1801 38.9851 11.1801C39.62 11.1801 40.0009 11.4286 40.3819 11.677C40.7628 12.0497 40.8898 12.6708 40.8898 13.1677Z" fill="#263B80"/>
<path d="M74.7948 9.19254H72.7631C72.6361 9.19254 72.3821 9.31676 72.3821 9.44099L72.2551 10.0621L72.1282 9.81366C71.6202 9.19254 70.7313 8.94409 69.7155 8.94409C67.4298 8.94409 65.398 10.6832 65.0171 13.0435C64.7631 14.2857 65.144 15.4037 65.779 16.1491C66.4139 16.8944 67.3028 17.1428 68.4456 17.1428C70.3504 17.1428 71.3663 16.0248 71.3663 16.0248L71.2393 16.6459C71.2393 16.8944 71.3663 17.0186 71.6202 17.0186H73.525C73.779 17.0186 74.0329 16.7702 74.1599 16.5217L75.3028 9.56521C75.1758 9.44099 75.0488 9.19254 74.7948 9.19254ZM71.8742 13.1677C71.6202 14.2857 70.7313 15.1553 69.4615 15.1553C68.8266 15.1553 68.3186 14.9068 68.0647 14.6584C67.8107 14.2857 67.6837 13.7888 67.6837 13.1677C67.8107 12.0497 68.8266 11.1801 69.9694 11.1801C70.6043 11.1801 70.9853 11.4286 71.3663 11.677C71.8742 12.0497 72.0012 12.6708 71.8742 13.1677Z" fill="#139AD6"/>
<path d="M54.8559 9.19257H52.6972C52.4432 9.19257 52.3162 9.31679 52.1892 9.44101L49.3956 13.6646L48.1257 9.68946C47.9988 9.44101 47.8718 9.31679 47.4908 9.31679H45.4591C45.2051 9.31679 45.0781 9.56524 45.0781 9.81368L47.3638 16.3975L45.2051 19.3789C45.0781 19.6273 45.2051 20 45.4591 20H47.4908C47.7448 20 47.8718 19.8758 47.9988 19.7516L54.9829 9.93791C55.3638 9.56524 55.1099 9.19257 54.8559 9.19257Z" fill="#263B80"/>
<path d="M77.2075 5.59007L75.4297 16.7702C75.4297 17.0186 75.5567 17.1429 75.8106 17.1429H77.5884C77.8424 17.1429 78.0964 16.8944 78.2233 16.646L80.0011 5.7143C80.0011 5.46585 79.8741 5.34163 79.6202 5.34163H77.5884C77.4614 5.2174 77.3344 5.34163 77.2075 5.59007Z" fill="#139AD6"/>
<path d="M14.6032 1.49068C13.7143 0.496892 12.0635 0 9.77778 0H3.42857C3.04762 0 2.66667 0.372668 2.53968 0.745339L0 17.0186C0 17.3913 0.253968 17.6397 0.507937 17.6397H4.44444L5.46032 11.5528V11.8012C5.5873 11.4286 5.96825 11.0559 6.34921 11.0559H8.25397C11.9365 11.0559 14.7302 9.5652 15.619 5.46583C15.619 5.34161 15.619 5.21738 15.619 5.09316C15.4921 5.09316 15.4921 5.09316 15.619 5.09316C15.746 3.47825 15.4921 2.48447 14.6032 1.49068Z" fill="#263B80"/>
<path d="M15.4911 5.09317C15.4911 5.21739 15.4911 5.34162 15.4911 5.46584C14.6022 9.68944 11.8085 11.0559 8.12599 11.0559H6.22123C5.84028 11.0559 5.45933 11.4286 5.33234 11.8012L4.0625 19.3789C4.0625 19.6273 4.18948 19.8758 4.57044 19.8758H7.87202C8.25298 19.8758 8.63393 19.6273 8.63393 19.2546V19.1304L9.26885 15.2795V15.031C9.26885 14.6584 9.6498 14.4099 10.0308 14.4099H10.5387C13.7133 14.4099 16.253 13.1677 16.8879 9.44099C17.1419 7.95031 17.0149 6.58385 16.253 5.71429C16.126 5.46584 15.872 5.21739 15.4911 5.09317Z" fill="#139AD6"/>
<path d="M14.6038 4.72051C14.4768 4.72051 14.3498 4.59628 14.2228 4.59628C14.0959 4.59628 13.9689 4.59628 13.8419 4.47206C13.334 4.34784 12.826 4.34784 12.1911 4.34784H7.23871C7.11173 4.34784 6.98475 4.34784 6.85776 4.47206C6.60379 4.59628 6.47681 4.84473 6.47681 5.09318L5.46094 11.5528V11.8012C5.58792 11.4286 5.96887 11.0559 6.34983 11.0559H8.25459C11.9371 11.0559 14.7308 9.56522 15.6197 5.46585C15.6197 5.34163 15.6197 5.2174 15.7467 5.09318C15.4927 4.96895 15.3657 4.84473 15.1117 4.84473C14.7308 4.72051 14.7308 4.72051 14.6038 4.72051Z" fill="#232C65"/>
</svg>
