<svg width="48" height="20" viewBox="0 0 48 20" fill="none" xmlns="http://www.w3.org/2000/svg">
<path d="M17.5996 16.6335L20.0377 3.43979H23.8473L21.4853 16.6335H17.5996Z" fill="#3C58BF"/>
<path d="M17.5996 16.6335L20.7234 3.43979H23.8473L21.4853 16.6335H17.5996Z" fill="#293688"/>
<path d="M35.2744 3.58639C34.5125 3.29319 33.2934 3 31.7696 3C27.9601 3 25.2172 4.83246 25.2172 7.47121C25.2172 9.45027 27.122 10.4764 28.6458 11.1361C30.1696 11.7958 30.6268 12.2356 30.6268 12.822C30.6268 13.7016 29.4077 14.1414 28.341 14.1414C26.8172 14.1414 25.9791 13.9215 24.6839 13.4084L24.1505 13.1885L23.6172 16.1937C24.5315 16.5602 26.2077 16.9267 27.9601 16.9267C31.9982 16.9267 34.6649 15.0943 34.6649 12.3089C34.6649 10.7696 33.6744 9.59687 31.3887 8.64399C30.0172 7.9843 29.1791 7.61781 29.1791 6.95812C29.1791 6.37173 29.8648 5.78534 31.3887 5.78534C32.6839 5.78534 33.5982 6.00524 34.2839 6.29843L34.6649 6.44503L35.2744 3.58639Z" fill="#3C58BF"/>
<path d="M35.2744 3.58639C34.5125 3.29319 33.2934 3 31.7696 3C27.9601 3 25.9029 4.83246 25.9029 7.47121C25.9029 9.45027 27.122 10.4764 28.6458 11.1361C30.1696 11.7958 30.6268 12.2356 30.6268 12.822C30.6268 13.7016 29.4077 14.1414 28.341 14.1414C26.8172 14.1414 25.9791 13.9215 24.6839 13.4084L24.1505 13.1885L23.6172 16.1937C24.5315 16.5602 26.2077 16.9267 27.9601 16.9267C31.9982 16.9267 34.6649 15.0943 34.6649 12.3089C34.6649 10.7696 33.6744 9.59687 31.3887 8.64399C30.0172 7.9843 29.1791 7.61781 29.1791 6.95812C29.1791 6.37173 29.8648 5.78534 31.3887 5.78534C32.6839 5.78534 33.5982 6.00524 34.2839 6.29843L34.6649 6.44503L35.2744 3.58639Z" fill="#293688"/>
<path d="M41.8281 3.43979C40.9138 3.43979 40.2281 3.51309 39.8471 4.39267L34.1328 16.6335H38.2471L39.009 14.4346H43.8853L44.3424 16.6335H47.9996L44.7995 3.43979H41.8281ZM40.0757 12.2356C40.3043 11.5759 41.5995 8.35079 41.5995 8.35079C41.5995 8.35079 41.9043 7.54451 42.1329 7.03142L42.3614 8.27749C42.3614 8.27749 43.1233 11.5759 43.2757 12.3089H40.0757V12.2356Z" fill="#3C58BF"/>
<path d="M42.7424 3.43979C41.8281 3.43979 41.1424 3.51309 40.7614 4.39267L34.1328 16.6335H38.2471L39.009 14.4346H43.8853L44.3424 16.6335H47.9996L44.7995 3.43979H42.7424ZM40.0757 12.2356C40.3805 11.5026 41.5995 8.35079 41.5995 8.35079C41.5995 8.35079 41.9043 7.54451 42.1329 7.03142L42.3614 8.27749C42.3614 8.27749 43.1233 11.5759 43.2757 12.3089H40.0757V12.2356Z" fill="#293688"/>
<path d="M10.5913 12.6754L10.2103 10.7696C9.5246 8.57069 7.31506 6.15184 4.87695 4.97906L8.30555 16.7068H12.4199L18.5913 3.51309H14.477L10.5913 12.6754Z" fill="#3C58BF"/>
<path d="M10.5913 12.6754L10.2103 10.7696C9.5246 8.57069 7.31506 6.15184 4.87695 4.97906L8.30555 16.7068H12.4199L18.5913 3.51309H15.2389L10.5913 12.6754Z" fill="#293688"/>
<path d="M0 3.43979L0.685719 3.58639C5.56194 4.68586 8.91434 7.47121 10.2096 10.7696L8.83815 4.53927C8.60958 3.65968 7.92386 3.43979 7.08576 3.43979H0Z" fill="#FFBC00"/>
<path d="M0 3.43979C4.87622 4.53927 8.91434 7.39791 10.2096 10.6963L8.91434 5.49215C8.68577 4.61257 7.92386 4.09948 7.08576 4.09948L0 3.43979Z" fill="#F7981D"/>
<path d="M0 3.43979C4.87622 4.53927 8.91434 7.39791 10.2096 10.6963L9.2953 7.8377C9.06673 6.95812 8.76196 6.07854 7.69529 5.71204L0 3.43979Z" fill="#ED7C00"/>
<path d="M14.3989 12.2356L11.8084 9.74344L10.5893 12.5288L10.2845 10.6963C9.59882 8.49737 7.38928 6.07852 4.95117 4.90574L8.37977 16.6335H12.4941L14.3989 12.2356Z" fill="#051244"/>
<path d="M21.4834 16.6335L18.2072 13.4084L17.5977 16.6335H21.4834Z" fill="#051244"/>
<path d="M30.2458 12.089C30.5506 12.3822 30.7029 12.6021 30.6268 12.8953C30.6268 13.7749 29.4077 14.2147 28.341 14.2147C26.8172 14.2147 25.9791 13.9948 24.6839 13.4817L24.1505 13.2618L23.6172 16.267C24.5315 16.6335 26.2077 17 27.9601 17C30.3982 17 32.3791 16.3403 33.522 15.1675L30.2458 12.089Z" fill="#051244"/>
<path d="M34.6641 16.6335H38.245L39.0069 14.4346H43.8832L44.3403 16.6335H47.9975L46.7022 11.2827L42.1308 7.03142L42.3593 8.20419C42.3593 8.20419 43.1213 11.5026 43.2736 12.2356H40.0736C40.3784 11.5026 41.5974 8.35079 41.5974 8.35079C41.5974 8.35079 41.9022 7.54451 42.1308 7.03142" fill="#051244"/>
</svg>
