<svg width="36" height="36" viewBox="0 0 36 36" fill="none" xmlns="http://www.w3.org/2000/svg">
<path d="M10.804 23.5H8.948V14.332L6.26 15.356L5.78 13.868L9.284 12.46H10.804V23.5ZM20.9739 16.684C20.6965 17.1213 20.2859 17.4627 19.7419 17.708C20.3179 17.9533 20.7872 18.3053 21.1499 18.764C21.5232 19.212 21.7099 19.788 21.7099 20.492C21.7099 20.9613 21.6139 21.3933 21.4219 21.788C21.2405 22.172 20.9792 22.5027 20.6379 22.78C20.3072 23.0573 19.9072 23.276 19.4379 23.436C18.9685 23.5853 18.4512 23.66 17.8859 23.66C17.3205 23.66 16.8032 23.5853 16.3339 23.436C15.8645 23.276 15.4592 23.0573 15.1179 22.78C14.7872 22.5027 14.5259 22.172 14.3339 21.788C14.1525 21.3933 14.0619 20.9613 14.0619 20.492C14.0619 19.788 14.2432 19.212 14.6059 18.764C14.9792 18.3053 15.4539 17.9533 16.0299 17.708C15.4859 17.4627 15.0699 17.1213 14.7819 16.684C14.5045 16.236 14.3659 15.7453 14.3659 15.212C14.3659 14.828 14.4405 14.4653 14.5899 14.124C14.7499 13.772 14.9792 13.4627 15.2779 13.196C15.5872 12.9187 15.9552 12.7 16.3819 12.54C16.8192 12.38 17.3205 12.3 17.8859 12.3C18.4405 12.3 18.9365 12.38 19.3739 12.54C19.8112 12.7 20.1792 12.9187 20.4779 13.196C20.7765 13.4627 21.0059 13.772 21.1659 14.124C21.3259 14.4653 21.4059 14.828 21.4059 15.212C21.4059 15.7453 21.2619 16.236 20.9739 16.684ZM19.3579 21.644C19.7312 21.3133 19.9179 20.876 19.9179 20.332C19.9179 19.788 19.7312 19.3453 19.3579 19.004C18.9845 18.652 18.4939 18.476 17.8859 18.476C17.2779 18.476 16.7872 18.652 16.4139 19.004C16.0405 19.3453 15.8539 19.788 15.8539 20.332C15.8539 20.876 16.0405 21.3133 16.4139 21.644C16.7872 21.964 17.2779 22.124 17.8859 22.124C18.4939 22.124 18.9845 21.964 19.3579 21.644ZM19.1179 16.524C19.4272 16.2253 19.5819 15.852 19.5819 15.404C19.5819 15.2013 19.5499 15.0093 19.4859 14.828C19.4219 14.636 19.3205 14.4707 19.1819 14.332C19.0432 14.1827 18.8672 14.0653 18.6539 13.98C18.4405 13.884 18.1845 13.836 17.8859 13.836C17.5872 13.836 17.3312 13.884 17.1179 13.98C16.9045 14.0653 16.7285 14.1827 16.5899 14.332C16.4512 14.4707 16.3499 14.636 16.2859 14.828C16.2219 15.0093 16.1899 15.2013 16.1899 15.404C16.1899 15.852 16.3445 16.2253 16.6539 16.524C16.9632 16.8227 17.3739 16.972 17.8859 16.972C18.3979 16.972 18.8085 16.8227 19.1179 16.524ZM30.2798 18.716H27.5598V21.436H26.0558V18.716H23.3358V17.228H26.0558V14.508H27.5598V17.228H30.2798V18.716Z" fill="white"/>
<rect x="0.5" y="0.5" width="35" height="35" rx="3.5" stroke="white" stroke-opacity="0.5"/>
</svg>
