<svg width="16" height="16" viewBox="0 0 16 16" fill="none" xmlns="http://www.w3.org/2000/svg">
<path d="M4 12.6667C5.10457 12.6667 6 11.7712 6 10.6667C6 9.56209 5.10457 8.66666 4 8.66666C2.89543 8.66666 2 9.56209 2 10.6667C2 11.7712 2.89543 12.6667 4 12.6667Z" stroke="#1A1C21" stroke-width="1.5" stroke-linecap="round" stroke-linejoin="round"/>
<path d="M10.6663 14C11.4027 14 11.9997 13.4031 11.9997 12.6667C11.9997 11.9303 11.4027 11.3333 10.6663 11.3333C9.92996 11.3333 9.33301 11.9303 9.33301 12.6667C9.33301 13.4031 9.92996 14 10.6663 14Z" stroke="#1A1C21" stroke-width="1.5" stroke-linecap="round" stroke-linejoin="round"/>
<path d="M9.66699 8C11.3238 8 12.667 6.65685 12.667 5C12.667 3.34315 11.3238 2 9.66699 2C8.01014 2 6.66699 3.34315 6.66699 5C6.66699 6.65685 8.01014 8 9.66699 8Z" stroke="#1A1C21" stroke-width="1.5" stroke-linecap="round" stroke-linejoin="round"/>
</svg>
