<svg width="40" height="40" viewBox="0 0 40 40" fill="none" xmlns="http://www.w3.org/2000/svg">
<circle cx="20" cy="20" r="20" fill="url(#paint0_linear_899_54021)"/>
<path d="M20.7078 23.0241C20.4826 23.1528 20.2252 23.2172 20 23.2172C19.7748 23.2172 19.5174 23.1528 19.2922 23.0241L8 16.1394V25.3083C8 27.2708 9.57641 28.8472 11.5389 28.8472H28.4611C30.4236 28.8472 32 27.2708 32 25.3083V16.1394L20.7078 23.0241Z" fill="url(#paint1_linear_899_54021)"/>
<path d="M28.4623 11.1528H11.54C9.86709 11.1528 8.45154 12.3432 8.09766 13.9196L20.0011 21.1903L31.9046 13.9196C31.5507 12.3432 30.1352 11.1528 28.4623 11.1528Z" fill="url(#paint2_linear_899_54021)"/>
<defs>
<linearGradient id="paint0_linear_899_54021" x1="20" y1="0" x2="20" y2="40" gradientUnits="userSpaceOnUse">
<stop stop-color="#7F3FFC" stop-opacity="0.6"/>
<stop offset="1" stop-color="#7F3FFC"/>
</linearGradient>
<linearGradient id="paint1_linear_899_54021" x1="20" y1="16.1394" x2="20" y2="28.8472" gradientUnits="userSpaceOnUse">
<stop stop-color="white"/>
<stop offset="1" stop-color="white" stop-opacity="0.8"/>
</linearGradient>
<linearGradient id="paint2_linear_899_54021" x1="20.0011" y1="11.1528" x2="20.0011" y2="21.1903" gradientUnits="userSpaceOnUse">
<stop stop-color="white"/>
<stop offset="1" stop-color="white" stop-opacity="0.8"/>
</linearGradient>
</defs>
</svg>
