<svg width="20" height="20" viewBox="0 0 20 20" fill="none" xmlns="http://www.w3.org/2000/svg">
<g clip-path="url(#clip0_1011_10045)">
<path d="M7.5013 9.16667C9.34225 9.16667 10.8346 7.67428 10.8346 5.83333C10.8346 3.99238 9.34225 2.5 7.5013 2.5C5.66035 2.5 4.16797 3.99238 4.16797 5.83333C4.16797 7.67428 5.66035 9.16667 7.5013 9.16667Z" stroke="#1A1C21" stroke-opacity="0.7" stroke-width="1.5" stroke-linecap="round" stroke-linejoin="round"/>
<path d="M2.5 17.5V15.8333C2.5 14.9493 2.85119 14.1014 3.47631 13.4763C4.10143 12.8512 4.94928 12.5 5.83333 12.5H9.16667C10.0507 12.5 10.8986 12.8512 11.5237 13.4763C12.1488 14.1014 12.5 14.9493 12.5 15.8333V17.5" stroke="#1A1C21" stroke-opacity="0.7" stroke-width="1.5" stroke-linecap="round" stroke-linejoin="round"/>
<path d="M13.332 9.16675H18.332M15.832 6.66675V11.6667" stroke="#1A1C21" stroke-opacity="0.7" stroke-width="1.5" stroke-linecap="round" stroke-linejoin="round"/>
</g>
<defs>
<clipPath id="clip0_1011_10045">
<rect width="20" height="20" fill="white"/>
</clipPath>
</defs>
</svg>
