<svg width="20" height="18" viewBox="0 0 20 18" fill="none" xmlns="http://www.w3.org/2000/svg">
<path d="M17.4993 9.572L9.99932 17L2.49932 9.572M2.49932 9.572C2.00463 9.09061 1.61497 8.51202 1.35487 7.87264C1.09478 7.23326 0.969886 6.54695 0.988062 5.85693C1.00624 5.16692 1.16709 4.48814 1.46048 3.86334C1.75388 3.23854 2.17346 2.68126 2.69281 2.22658C3.21216 1.77191 3.82003 1.42969 4.47814 1.22148C5.13624 1.01327 5.83033 0.943585 6.51669 1.0168C7.20306 1.09002 7.86682 1.30456 8.4662 1.64691C9.06558 1.98926 9.58757 2.452 9.99932 3.006C10.4129 2.45602 10.9355 1.99732 11.5344 1.65861C12.1334 1.31989 12.7958 1.10845 13.4803 1.03752C14.1647 0.966592 14.8564 1.0377 15.5121 1.24639C16.1678 1.45509 16.7734 1.79687 17.2909 2.25036C17.8084 2.70386 18.2268 3.25929 18.5197 3.88189C18.8127 4.5045 18.9741 5.18088 18.9936 5.86871C19.0132 6.55653 18.8906 7.24099 18.6335 7.87925C18.3763 8.51751 17.9902 9.09582 17.4993 9.578" stroke="white" stroke-width="1.5" stroke-linecap="round" stroke-linejoin="round"/>
</svg>
