<svg width="19" height="17" viewBox="0 0 19 17" fill="none" xmlns="http://www.w3.org/2000/svg">
<path d="M17.5013 9.57169L10.0013 16.9997L2.50128 9.57169M2.50128 9.57169C2.00658 9.0903 1.61692 8.5117 1.35683 7.87232C1.09673 7.23295 0.971839 6.54664 0.990015 5.85662C1.00819 5.1666 1.16904 4.48782 1.46244 3.86303C1.75583 3.23823 2.17541 2.68094 2.69476 2.22627C3.21411 1.77159 3.82198 1.42938 4.48009 1.22117C5.1382 1.01296 5.83228 0.943272 6.51865 1.01649C7.20501 1.08971 7.86878 1.30425 8.46815 1.64659C9.06753 1.98894 9.58953 2.45169 10.0013 3.00569C10.4148 2.45571 10.9374 1.99701 11.5364 1.65829C12.1353 1.31958 12.7978 1.10814 13.4822 1.03721C14.1666 0.966279 14.8584 1.03739 15.5141 1.24608C16.1697 1.45477 16.7753 1.79656 17.2928 2.25005C17.8104 2.70354 18.2287 3.25897 18.5217 3.88158C18.8147 4.50419 18.976 5.18057 18.9956 5.8684C19.0152 6.55622 18.8925 7.24068 18.6354 7.87894C18.3783 8.5172 17.9922 9.09551 17.5013 9.57769" fill="#7F3FFC"/>
</svg>
