<svg width="16" height="16" viewBox="0 0 16 16" fill="none" xmlns="http://www.w3.org/2000/svg">
<path d="M8 8V8.00583" stroke="#1A1C21" stroke-width="1.5" stroke-linecap="round" stroke-linejoin="round"/>
<path d="M9.88574 6.11459C10.3857 6.61467 10.6665 7.29282 10.6665 7.99993C10.6665 8.70703 10.3857 9.38519 9.88574 9.88526" stroke="#1A1C21" stroke-width="1.5" stroke-linecap="round" stroke-linejoin="round"/>
<path d="M11.7705 4.22916C12.2658 4.72441 12.6587 5.31236 12.9267 5.95945C13.1947 6.60654 13.3327 7.30008 13.3327 8.00049C13.3327 8.7009 13.1947 9.39444 12.9267 10.0415C12.6587 10.6886 12.2658 11.2766 11.7705 11.7718" stroke="#1A1C21" stroke-width="1.5" stroke-linecap="round" stroke-linejoin="round"/>
<path d="M6.11182 9.88526C5.6119 9.38519 5.33105 8.70703 5.33105 7.99993C5.33105 7.29282 5.6119 6.61467 6.11182 6.11459" stroke="#1A1C21" stroke-width="1.5" stroke-linecap="round" stroke-linejoin="round"/>
<path d="M4.22528 11.7718C3.73001 11.2766 3.33713 10.6886 3.06909 10.0415C2.80105 9.39444 2.66309 8.7009 2.66309 8.00049C2.66309 7.30008 2.80105 6.60654 3.06909 5.95945C3.33713 5.31236 3.73001 4.72441 4.22528 4.22916" stroke="#1A1C21" stroke-width="1.5" stroke-linecap="round" stroke-linejoin="round"/>
</svg>
