<svg width="20" height="12" viewBox="0 0 20 12" fill="none" xmlns="http://www.w3.org/2000/svg">
<path fill-rule="evenodd" clip-rule="evenodd" d="M0.1717 3.20117L8.09378 11.3633C8.9178 12.2122 10.3556 12.2122 11.1797 11.3633L19.1017 3.20117C19.165 3.13601 19.2222 3.06882 19.2737 3H-0.000295733C0.0511922 3.06882 0.108461 3.13601 0.1717 3.20117ZM1.71178 0L17.5588 -2.38419e-07L1.71464 -1.66893e-06C1.71368 -1.66893e-06 1.71273 -1.19209e-06 1.71178 0Z" fill="white"/>
<mask id="path-2-inside-1_330_2416" fill="white">
<path fill-rule="evenodd" clip-rule="evenodd" d="M1.37002 3L8.81136 10.6668C9.24259 11.1111 10.0309 11.1111 10.4621 10.6668L17.9034 3H19.2737C19.2222 3.06882 19.165 3.13601 19.1017 3.20117L11.1797 11.3633C10.3556 12.2122 8.9178 12.2122 8.09378 11.3633L0.1717 3.20117C0.108461 3.13601 0.051192 3.06882 -0.000295924 3H1.37002ZM17.5588 -2.38419e-07L1.71464 -1.66893e-06C1.71368 -1.66893e-06 1.71273 -1.19209e-06 1.71178 0L17.5588 -2.38419e-07Z"/>
</mask>
<path fill-rule="evenodd" clip-rule="evenodd" d="M1.37002 3L8.81136 10.6668C9.24259 11.1111 10.0309 11.1111 10.4621 10.6668L17.9034 3H19.2737C19.2222 3.06882 19.165 3.13601 19.1017 3.20117L11.1797 11.3633C10.3556 12.2122 8.9178 12.2122 8.09378 11.3633L0.1717 3.20117C0.108461 3.13601 0.051192 3.06882 -0.000295924 3H1.37002ZM17.5588 -2.38419e-07L1.71464 -1.66893e-06C1.71368 -1.66893e-06 1.71273 -1.19209e-06 1.71178 0L17.5588 -2.38419e-07Z" fill="white"/>
<path d="M1.37002 3L2.0876 2.30352L1.793 2H1.37002V3ZM8.81136 10.6668L8.09378 11.3633H8.09378L8.81136 10.6668ZM10.4621 10.6668L11.1797 11.3633L10.4621 10.6668ZM17.9034 3V2H17.4804L17.1858 2.30352L17.9034 3ZM19.2737 3L20.0745 3.59904L21.2707 2H19.2737V3ZM19.1017 3.20117L18.3842 2.50469L18.3842 2.50469L19.1017 3.20117ZM11.1797 11.3633L11.8972 12.0597L11.1797 11.3633ZM8.09378 11.3633L7.3762 12.0597L8.09378 11.3633ZM0.1717 3.20117L0.889279 2.50469L0.889278 2.50469L0.1717 3.20117ZM-0.000295924 3V2H-1.99727L-0.801022 3.59903L-0.000295924 3ZM1.71464 -1.66893e-06L1.71464 -1H1.71464V-1.66893e-06ZM1.71178 0L1.71053 -0.999999L1.71178 1V0ZM0.652445 3.69648L8.09378 11.3633L9.52894 9.9703L2.0876 2.30352L0.652445 3.69648ZM8.09378 11.3633C8.9178 12.2122 10.3556 12.2122 11.1797 11.3633L9.7445 9.9703C9.74225 9.97262 9.70941 10 9.63672 10C9.56403 10 9.53118 9.97262 9.52894 9.9703L8.09378 11.3633ZM11.1797 11.3633L18.621 3.69648L17.1858 2.30352L9.7445 9.9703L11.1797 11.3633ZM19.2737 2H17.9034V4H19.2737V2ZM19.8193 3.89765C19.9117 3.80241 19.9969 3.70274 20.0745 3.59904L18.473 2.40096C18.4476 2.43491 18.4182 2.46961 18.3842 2.50469L19.8193 3.89765ZM11.8972 12.0597L19.8193 3.89765L18.3842 2.50469L10.4621 10.6668L11.8972 12.0597ZM7.3762 12.0597C8.59302 13.3134 10.6804 13.3134 11.8972 12.0597L10.4621 10.6668C10.0309 11.1111 9.24259 11.1111 8.81136 10.6668L7.3762 12.0597ZM-0.545878 3.89764L7.3762 12.0597L8.81136 10.6668L0.889279 2.50469L-0.545878 3.89764ZM-0.801022 3.59903C-0.723435 3.70274 -0.638307 3.80242 -0.545878 3.89765L0.889278 2.50469C0.855228 2.46961 0.825819 2.43491 0.80043 2.40097L-0.801022 3.59903ZM1.37002 2H-0.000295924V4H1.37002V2ZM17.5588 -1L1.71464 -1L1.71464 0.999998L17.5588 1V-1ZM1.71464 -1C1.71336 -1 1.71198 -1 1.71053 -0.999999L1.71302 0.999999C1.71348 0.999999 1.71401 0.999998 1.71464 0.999998V-1ZM1.71178 1L17.5588 1V-1H1.71178V1Z" fill="#1A1C21" fill-opacity="0.1" mask="url(#path-2-inside-1_330_2416)"/>
</svg>
