<svg width="18" height="18" viewBox="0 0 18 18" fill="none" xmlns="http://www.w3.org/2000/svg">
<path d="M9.46647 14.9953C9.17499 14.8417 8.82655 14.8416 8.53492 14.9949L4.62238 17.052C3.88874 17.4377 3.03127 16.8147 3.17141 15.9978L3.91885 11.6406C3.97454 11.3159 3.86679 10.9847 3.63076 10.7549L0.461707 7.67017C-0.132568 7.09171 0.195037 6.08289 1.01579 5.96394L5.38728 5.33039C5.71314 5.28317 5.99487 5.07856 6.14059 4.78329L8.09707 0.818966C8.46389 0.075714 9.52374 0.0757149 9.89055 0.818967L11.847 4.78329C11.9928 5.07856 12.2745 5.28317 12.6003 5.33039L16.9718 5.96394C17.7926 6.08289 18.1202 7.09171 17.5259 7.67018L14.3569 10.7549C14.1208 10.9847 14.0131 11.3159 14.0688 11.6406L14.8158 15.9954C14.956 16.8128 14.0977 17.4358 13.364 17.0492L9.46647 14.9953Z" fill="#7F3FFC"/>
</svg>
