<svg width="16" height="16" viewBox="0 0 16 16" fill="none" xmlns="http://www.w3.org/2000/svg">
<path d="M8.1062 7.24601C8.03302 7.23934 7.95939 7.23934 7.8862 7.24601C7.11043 7.21719 6.37695 6.88506 5.84352 6.32105C5.31008 5.75705 5.0193 5.00622 5.03371 4.23004C5.04813 3.45387 5.36658 2.71435 5.92059 2.17054C6.47459 1.62672 7.21989 1.32205 7.9962 1.32205C8.77251 1.32205 9.51782 1.62672 10.0718 2.17054C10.6258 2.71435 10.9443 3.45387 10.9587 4.23004C10.9731 5.00622 10.6823 5.75705 10.1489 6.32105C9.61546 6.88506 8.88198 7.21719 8.1062 7.24601V7.24601Z" stroke="#1A1C21" stroke-linecap="round" stroke-linejoin="round"/>
<path d="M4.77222 9.707C4.40874 9.88856 4.10303 10.1678 3.88935 10.5134C3.67568 10.8589 3.5625 11.2572 3.5625 11.6635C3.5625 12.0698 3.67568 12.4681 3.88935 12.8136C4.10303 13.1592 4.40874 13.4384 4.77222 13.62C5.78103 14.222 6.93393 14.5399 8.10872 14.5399C9.28351 14.5399 10.4364 14.222 11.4452 13.62C11.8087 13.4384 12.1144 13.1592 12.3281 12.8136C12.5418 12.4681 12.6549 12.0698 12.6549 11.6635C12.6549 11.2572 12.5418 10.8589 12.3281 10.5134C12.1144 10.1678 11.8087 9.88856 11.4452 9.707C10.4353 9.10809 9.28285 8.79205 8.10872 8.79205C6.93459 8.79205 5.78211 9.10809 4.77222 9.707V9.707Z" stroke="#1A1C21" stroke-linecap="round" stroke-linejoin="round"/>
</svg>
