<svg width="24" height="24" viewBox="0 0 24 24" fill="none" xmlns="http://www.w3.org/2000/svg">
<path d="M17.8022 19.8174L15.6302 20.9554C15.5657 20.989 15.4932 21.0039 15.4208 20.9987C15.3483 20.9934 15.2787 20.9681 15.2198 20.9255C15.1609 20.883 15.1149 20.8249 15.0871 20.7578C15.0593 20.6907 15.0506 20.6172 15.0622 20.5454L15.4772 18.1344L13.7202 16.4274C13.6677 16.3767 13.6306 16.3123 13.613 16.2415C13.5955 16.1707 13.5981 16.0964 13.6208 16.0271C13.6434 15.9577 13.6851 15.8961 13.741 15.8493C13.797 15.8025 13.8649 15.7724 13.9372 15.7624L16.3652 15.4104L17.4512 13.2174C17.4839 13.1526 17.5339 13.0982 17.5957 13.0601C17.6575 13.0221 17.7286 13.002 17.8012 13.002C17.8738 13.002 17.9449 13.0221 18.0067 13.0601C18.0685 13.0982 18.1185 13.1526 18.1512 13.2174L19.2372 15.4104L21.6652 15.7624C21.7372 15.7728 21.8049 15.8031 21.8606 15.8499C21.9164 15.8968 21.9578 15.9583 21.9804 16.0275C22.003 16.0967 22.0058 16.1708 21.9884 16.2415C21.971 16.3121 21.9343 16.3766 21.8822 16.4274L20.1252 18.1344L20.5392 20.5444C20.5516 20.6163 20.5436 20.6902 20.5162 20.7578C20.4887 20.8253 20.4428 20.8838 20.3838 20.9266C20.3247 20.9694 20.2549 20.9948 20.1821 20.9999C20.1094 21.005 20.0366 20.9896 19.9722 20.9554L17.8022 19.8174Z" stroke="#1A1C21" stroke-opacity="0.7" stroke-width="1.5" stroke-linecap="round" stroke-linejoin="round"/>
<path d="M6.20063 19.8174L4.02863 20.9554C3.96417 20.989 3.89166 21.0039 3.81919 20.9987C3.74672 20.9934 3.67714 20.9681 3.61822 20.9255C3.5593 20.883 3.51336 20.8249 3.48554 20.7578C3.45771 20.6907 3.44908 20.6172 3.46063 20.5454L3.87563 18.1344L2.11863 16.4274C2.06619 16.3767 2.02905 16.3123 2.01147 16.2415C1.99389 16.1707 1.99656 16.0964 2.01919 16.0271C2.04182 15.9577 2.08349 15.8961 2.13944 15.8493C2.19539 15.8025 2.26338 15.7724 2.33563 15.7624L4.76363 15.4104L5.84963 13.2174C5.88231 13.1526 5.93233 13.0982 5.99413 13.0601C6.05592 13.0221 6.12706 13.002 6.19963 13.002C6.27219 13.002 6.34334 13.0221 6.40513 13.0601C6.46693 13.0982 6.51695 13.1526 6.54963 13.2174L7.63763 15.4104L10.0656 15.7624C10.1377 15.7728 10.2054 15.8031 10.2611 15.8499C10.3168 15.8968 10.3583 15.9583 10.3809 16.0275C10.4034 16.0967 10.4062 16.1708 10.3888 16.2415C10.3715 16.3121 10.3347 16.3766 10.2826 16.4274L8.52563 18.1344L8.93963 20.5444C8.95205 20.6163 8.94408 20.6902 8.91661 20.7578C8.88914 20.8253 8.84327 20.8838 8.78422 20.9266C8.72517 20.9694 8.6553 20.9948 8.58254 20.9999C8.50979 21.005 8.43706 20.9896 8.37263 20.9554L6.20063 19.8174Z" stroke="#1A1C21" stroke-opacity="0.7" stroke-width="1.5" stroke-linecap="round" stroke-linejoin="round"/>
<path d="M11.9975 9.81742L9.8255 10.9554C9.76105 10.989 9.68854 11.0039 9.61606 10.9987C9.54359 10.9934 9.47401 10.9681 9.41509 10.9255C9.35618 10.883 9.31024 10.8249 9.28241 10.7578C9.25458 10.6907 9.24596 10.6172 9.2575 10.5454L9.6725 8.13442L7.9155 6.42742C7.86306 6.37672 7.82593 6.3123 7.80835 6.24151C7.79076 6.17072 7.79344 6.09641 7.81607 6.02707C7.83869 5.95772 7.88036 5.89614 7.93632 5.84934C7.99227 5.80255 8.06025 5.77243 8.1325 5.76242L10.5605 5.41042L11.6465 3.21742C11.6792 3.15263 11.7292 3.09818 11.791 3.06014C11.8528 3.0221 11.9239 3.00195 11.9965 3.00195C12.0691 3.00195 12.1402 3.0221 12.202 3.06014C12.2638 3.09818 12.3138 3.15263 12.3465 3.21742L13.4345 5.41042L15.8625 5.76242C15.9345 5.77278 16.0022 5.8031 16.058 5.84994C16.1137 5.89678 16.1552 5.95827 16.1777 6.02746C16.2003 6.09665 16.2031 6.17078 16.1857 6.24146C16.1684 6.31215 16.1316 6.37656 16.0795 6.42742L14.3225 8.13442L14.7365 10.5444C14.7489 10.6163 14.741 10.6902 14.7135 10.7578C14.686 10.8253 14.6401 10.8838 14.5811 10.9266C14.522 10.9694 14.4522 10.9948 14.3794 10.9999C14.3067 11.005 14.2339 10.9896 14.1695 10.9554L11.9975 9.81742Z" stroke="#1A1C21" stroke-opacity="0.7" stroke-width="1.5" stroke-linecap="round" stroke-linejoin="round"/>
</svg>
