<svg width="40" height="40" viewBox="0 0 40 40" fill="none" xmlns="http://www.w3.org/2000/svg">
<g clip-path="url(#clip0_899_53868)">
<path d="M2.49952 2.72166C-0.643815 5.98666 -0.00048171 9.455 -0.00048171 19.9917C-0.00048171 28.7417 -1.52715 37.5133 6.46285 39.5783C8.95785 40.22 31.0645 40.22 33.5562 39.575C36.8829 38.7167 39.5895 36.0183 39.9595 31.3133C40.0112 30.6567 40.0112 9.33833 39.9579 8.66833C39.5645 3.65666 36.4795 0.768329 32.4145 0.183329C31.4828 0.0483293 31.2962 0.00832928 26.5162 -4.05312e-06C9.56118 0.00832928 5.84452 -0.746671 2.49952 2.72166Z" fill="url(#paint0_linear_899_53868)"/>
<path d="M19.9977 5.23166C13.946 5.23166 8.19933 4.69333 6.00433 10.3267C5.09766 12.6533 5.22933 15.675 5.22933 20.0017C5.22933 23.7983 5.10766 27.3667 6.00433 29.675C8.19433 35.3117 13.9877 34.7717 19.9943 34.7717C25.7893 34.7717 31.7643 35.375 33.986 29.675C34.8943 27.325 34.761 24.3483 34.761 20.0017C34.761 14.2317 35.0793 10.5067 32.281 7.70999C29.4477 4.87666 25.616 5.23166 19.991 5.23166H19.9977ZM18.6743 7.89333C31.2977 7.87333 32.9043 6.47 32.0177 25.965C31.7027 32.86 26.4527 32.1033 19.9993 32.1033C8.23266 32.1033 7.89433 31.7667 7.89433 19.995C7.89433 8.08666 8.82766 7.89999 18.6743 7.88999V7.89333ZM27.881 10.345C26.9027 10.345 26.1093 11.1383 26.1093 12.1167C26.1093 13.095 26.9027 13.8883 27.881 13.8883C28.8593 13.8883 29.6527 13.095 29.6527 12.1167C29.6527 11.1383 28.8593 10.345 27.881 10.345ZM19.9977 12.4167C15.8093 12.4167 12.4143 15.8133 12.4143 20.0017C12.4143 24.19 15.8093 27.585 19.9977 27.585C24.186 27.585 27.5793 24.19 27.5793 20.0017C27.5793 15.8133 24.186 12.4167 19.9977 12.4167ZM19.9977 15.0783C26.506 15.0783 26.5143 24.925 19.9977 24.925C13.491 24.925 13.481 15.0783 19.9977 15.0783Z" fill="white"/>
</g>
<defs>
<linearGradient id="paint0_linear_899_53868" x1="2.57622" y1="37.4452" x2="39.752" y2="5.26996" gradientUnits="userSpaceOnUse">
<stop stop-color="#FFDD55"/>
<stop offset="0.5" stop-color="#FF543E"/>
<stop offset="1" stop-color="#C837AB"/>
</linearGradient>
<clipPath id="clip0_899_53868">
<rect width="40" height="40" fill="white"/>
</clipPath>
</defs>
</svg>
