<svg width="25" height="24" viewBox="0 0 25 24" fill="none" xmlns="http://www.w3.org/2000/svg">
<path d="M16.25 4H8.25C6.04086 4 4.25 5.79086 4.25 8V16C4.25 18.2091 6.04086 20 8.25 20H16.25C18.4591 20 20.25 18.2091 20.25 16V8C20.25 5.79086 18.4591 4 16.25 4Z" stroke="#F2F2F2" stroke-opacity="0.7" stroke-width="1.5" stroke-linecap="round" stroke-linejoin="round"/>
<path d="M12.25 15C13.9069 15 15.25 13.6569 15.25 12C15.25 10.3431 13.9069 9 12.25 9C10.5931 9 9.25 10.3431 9.25 12C9.25 13.6569 10.5931 15 12.25 15Z" stroke="#F2F2F2" stroke-opacity="0.7" stroke-width="1.5" stroke-linecap="round" stroke-linejoin="round"/>
<path d="M16.75 7.5V7.501" stroke="#F2F2F2" stroke-opacity="0.7" stroke-width="1.5" stroke-linecap="round" stroke-linejoin="round"/>
</svg>
