<svg width="40" height="40" viewBox="0 0 40 40" fill="none" xmlns="http://www.w3.org/2000/svg">
<path d="M34.5455 0H5.45455C2.44208 0 0 2.44208 0 5.45455V34.5455C0 37.5579 2.44208 40 5.45455 40H34.5455C37.5579 40 40 37.5579 40 34.5455V5.45455C40 2.44208 37.5579 0 34.5455 0Z" fill="#1C8ADB"/>
<path d="M30.8937 10.3409L30.48 10.4909L8.03003 18.5795C7.87094 18.6287 7.73267 18.7293 7.63689 18.8655C7.54111 19.0018 7.49323 19.1659 7.50077 19.3323C7.50831 19.4986 7.57083 19.6578 7.67854 19.7848C7.78625 19.9118 7.93305 19.9995 8.09594 20.0341L13.9073 21.625L14.9914 24.8068L16.0755 27.9886C16.1378 28.1446 16.2372 28.283 16.3651 28.3919C16.493 28.5007 16.6455 28.5767 16.8095 28.6132C16.9734 28.6497 17.1438 28.6456 17.3058 28.6013C17.4678 28.557 17.6165 28.4739 17.7391 28.3591L20.7414 25.5227L26.6369 29.5204C27.3573 30.0113 28.3846 29.6477 28.5687 28.8386L32.4732 11.5863C32.6641 10.7318 31.7641 10.0295 30.8937 10.3409ZM28.0278 14.1704L17.8846 22.4613L17.4073 22.8523C17.3025 22.9354 17.234 23.056 17.2164 23.1886L17.1096 24.0704L16.8164 26.5477C16.8188 26.5778 16.8091 26.6077 16.7895 26.6307C16.7699 26.6537 16.742 26.668 16.7119 26.6704C16.6817 26.6728 16.6519 26.6632 16.6288 26.6436C16.6058 26.624 16.5915 26.596 16.5891 26.5659L15.7641 24.0909L14.9119 21.5568C14.8758 21.4429 14.8806 21.32 14.9254 21.2092C14.9702 21.0985 15.0522 21.0068 15.1573 20.95L25.7118 14.9L27.6982 13.7636C27.9868 13.5954 28.2823 13.9613 28.0278 14.1704Z" fill="white"/>
</svg>
