<svg width="25" height="24" viewBox="0 0 25 24" fill="none" xmlns="http://www.w3.org/2000/svg">
<path d="M22.25 4.00925C21.2811 4.42681 20.2772 4.75809 19.25 4.99925C18.6904 4.43109 17.9657 4.054 17.1793 3.92167C16.3929 3.78934 15.5847 3.90853 14.87 4.26225C14.0989 4.53532 13.4321 5.04203 12.9625 5.71185C12.4929 6.38166 12.2438 7.18124 12.25 7.99925V8.99925C10.6891 9.05021 9.14013 8.71114 7.74327 8.01271C6.34641 7.31428 5.14577 6.27855 4.25 4.99925C4.25 4.99925 0.0679998 12.4322 8.25 15.9992C6.52401 17.3069 4.4154 18.0098 2.25 17.9992C5.26736 19.7983 8.86968 20.3429 12.284 19.5162C14.1213 19.0003 15.7928 18.0153 17.1342 16.6579C18.4756 15.3005 19.4408 13.6175 19.935 11.7742C20.2728 10.5521 20.441 9.28924 20.435 8.02125C20.435 7.77225 21.945 5.24925 22.253 4.00825L22.25 4.00925Z" stroke="#F2F2F2" stroke-opacity="0.7" stroke-width="1.5" stroke-linecap="round" stroke-linejoin="round"/>
</svg>
