<svg width="40" height="40" viewBox="0 0 40 40" fill="none" xmlns="http://www.w3.org/2000/svg">
<path d="M34.5455 0H5.45455C2.44208 0 0 2.44208 0 5.45455V34.5455C0 37.5579 2.44208 40 5.45455 40H34.5455C37.5579 40 40 37.5579 40 34.5455V5.45455C40 2.44208 37.5579 0 34.5455 0Z" fill="#50ABF1"/>
<path d="M32.4517 12.4341C31.8584 13.3205 31.136 14.1133 30.3085 14.7863C30.2012 14.8717 30.1146 14.9802 30.0552 15.1038C29.9957 15.2274 29.965 15.3628 29.9654 15.5V15.5841C29.9559 17.3702 29.628 19.1403 28.9972 20.8113C28.3473 22.5628 27.3821 24.1804 26.1494 25.5841C24.5004 27.4639 22.3763 28.8659 19.9994 29.6432C18.4333 30.1514 16.796 30.4062 15.1494 30.3977C12.5418 30.395 9.98121 29.7035 7.72672 28.3932C7.64599 28.3473 7.58251 28.2762 7.54598 28.1909C7.50946 28.1055 7.50189 28.0105 7.52445 27.9204C7.54731 27.8314 7.59935 27.7525 7.67226 27.6965C7.74518 27.6405 7.83477 27.6105 7.92672 27.6113H8.54945C10.5315 27.611 12.4682 27.0182 14.1108 25.9091C13.1316 25.749 12.2154 25.3225 11.4625 24.6763C10.7097 24.0301 10.1492 23.189 9.84263 22.2454C9.82759 22.1989 9.8249 22.1493 9.83485 22.1014C9.84479 22.0535 9.86702 22.0091 9.89934 21.9724C9.93167 21.9357 9.97298 21.9081 10.0192 21.8922C10.0655 21.8763 10.115 21.8727 10.1631 21.8818C10.4628 21.9388 10.7671 21.9677 11.0722 21.9682H11.1858C10.2367 21.5321 9.43435 20.8303 8.87572 19.9478C8.31709 19.0653 8.02615 18.0398 8.03808 16.9954C8.03873 16.9464 8.05204 16.8984 8.07672 16.8561C8.1014 16.8138 8.13661 16.7785 8.17892 16.7538C8.22124 16.7291 8.26923 16.7158 8.31822 16.7151C8.36722 16.7144 8.41555 16.7265 8.45854 16.75C8.84361 16.965 9.25663 17.1256 9.68581 17.2273C8.83593 16.387 8.28893 15.2885 8.13057 14.1039C7.97222 12.9194 8.21147 11.7158 8.81081 10.6818C8.8338 10.6437 8.86549 10.6116 8.90328 10.5881C8.94107 10.5646 8.98389 10.5504 9.02823 10.5466C9.07258 10.5428 9.11718 10.5496 9.15839 10.5664C9.19961 10.5832 9.23626 10.6095 9.26536 10.6432C10.4557 12.1146 11.9295 13.3319 13.5993 14.2228C15.269 15.1137 17.1008 15.6601 18.9858 15.8295H19.0063C19.0342 15.8286 19.0617 15.8221 19.087 15.8104C19.1124 15.7987 19.1352 15.782 19.154 15.7613C19.1721 15.7407 19.1857 15.7165 19.1939 15.6902C19.2021 15.664 19.2048 15.6364 19.2017 15.6091C19.1313 14.949 19.1744 14.2819 19.329 13.6363C19.4645 13.0712 19.695 12.5333 20.0108 12.0454C20.6735 11.0046 21.6831 10.2317 22.8608 9.86361C23.4133 9.69041 23.9887 9.60153 24.5676 9.59998C25.8806 9.59868 27.1487 10.0772 28.1335 10.9454C28.259 11.0569 28.4203 11.1198 28.5881 11.1227C28.6434 11.1218 28.6983 11.1142 28.7517 11.1C29.6776 10.8657 30.5647 10.4991 31.3858 10.0113C31.4352 9.98279 31.4921 9.96979 31.549 9.97403C31.606 9.97828 31.6603 9.99957 31.7049 10.0351C31.7496 10.0707 31.7825 10.1189 31.7993 10.1734C31.8162 10.228 31.8162 10.2863 31.7994 10.3409C31.524 11.2011 31.0362 11.978 30.3813 12.6C30.972 12.4589 31.5487 12.2641 32.104 12.0182C32.16 11.9932 32.2226 11.9872 32.2823 12.001C32.342 12.0149 32.3956 12.0478 32.4349 12.0948C32.4742 12.1418 32.4971 12.2004 32.5002 12.2616C32.5032 12.3228 32.4862 12.3834 32.4517 12.4341Z" fill="white"/>
</svg>
