<svg width="25" height="24" viewBox="0 0 25 24" fill="none" xmlns="http://www.w3.org/2000/svg">
<path d="M22.333 4.00925C21.3641 4.42681 20.3602 4.75809 19.333 4.99925C18.7734 4.43109 18.0488 4.054 17.2623 3.92167C16.4759 3.78934 15.6678 3.90853 14.953 4.26225C14.1819 4.53532 13.5151 5.04203 13.0455 5.71185C12.5759 6.38166 12.3269 7.18124 12.333 7.99925V8.99925C10.7721 9.05021 9.22313 8.71114 7.82628 8.01271C6.42942 7.31428 5.22878 6.27855 4.33301 4.99925C4.33301 4.99925 0.151008 12.4322 8.33301 15.9992C6.60702 17.3069 4.49841 18.0098 2.33301 17.9992C5.35037 19.7983 8.95269 20.3429 12.367 19.5162C14.2043 19.0003 15.8758 18.0153 17.2172 16.6579C18.5586 15.3005 19.5238 13.6175 20.018 11.7742C20.3558 10.5521 20.5241 9.28924 20.518 8.02125C20.518 7.77225 22.028 5.24925 22.336 4.00825L22.333 4.00925Z" stroke="#1A1C21" stroke-width="1.5" stroke-linecap="round" stroke-linejoin="round"/>
</svg>
